<svg width="85" height="138" viewBox="0 0 85 138" fill="none" xmlns="http://www.w3.org/2000/svg">
<path d="M5.42616 116.242C5.85816 115.634 6.45016 115.13 7.20216 114.73C7.97016 114.314 8.84216 114.106 9.81816 114.106C10.9542 114.106 11.9782 114.386 12.8902 114.946C13.8182 115.506 14.5462 116.306 15.0742 117.346C15.6182 118.37 15.8902 119.562 15.8902 120.922C15.8902 122.282 15.6182 123.49 15.0742 124.546C14.5462 125.586 13.8182 126.394 12.8902 126.97C11.9782 127.546 10.9542 127.834 9.81816 127.834C8.84216 127.834 7.97816 127.634 7.22616 127.234C6.49016 126.834 5.89016 126.33 5.42616 125.722V133.954H2.06616V114.322H5.42616V116.242ZM12.4582 120.922C12.4582 120.122 12.2902 119.434 11.9542 118.858C11.6342 118.266 11.2022 117.818 10.6582 117.514C10.1302 117.21 9.55416 117.058 8.93016 117.058C8.32216 117.058 7.74616 117.218 7.20216 117.538C6.67416 117.842 6.24216 118.29 5.90616 118.882C5.58616 119.474 5.42616 120.17 5.42616 120.97C5.42616 121.77 5.58616 122.466 5.90616 123.058C6.24216 123.65 6.67416 124.106 7.20216 124.426C7.74616 124.73 8.32216 124.882 8.93016 124.882C9.55416 124.882 10.1302 124.722 10.6582 124.402C11.2022 124.082 11.6342 123.626 11.9542 123.034C12.2902 122.442 12.4582 121.738 12.4582 120.922ZM21.6918 116.386C22.1238 115.682 22.6838 115.13 23.3718 114.73C24.0758 114.33 24.8758 114.13 25.7718 114.13V117.658H24.8838C23.8278 117.658 23.0278 117.906 22.4838 118.402C21.9558 118.898 21.6918 119.762 21.6918 120.994V127.618H18.3318V114.322H21.6918V116.386ZM27.1709 120.922C27.1709 119.578 27.4349 118.386 27.9629 117.346C28.5069 116.306 29.2349 115.506 30.1469 114.946C31.0749 114.386 32.1069 114.106 33.2429 114.106C34.2349 114.106 35.0989 114.306 35.8349 114.706C36.5869 115.106 37.1869 115.61 37.6349 116.218V114.322H41.0189V127.618H37.6349V125.674C37.2029 126.298 36.6029 126.818 35.8349 127.234C35.0829 127.634 34.2109 127.834 33.2189 127.834C32.0989 127.834 31.0749 127.546 30.1469 126.97C29.2349 126.394 28.5069 125.586 27.9629 124.546C27.4349 123.49 27.1709 122.282 27.1709 120.922ZM37.6349 120.97C37.6349 120.154 37.4749 119.458 37.1549 118.882C36.8349 118.29 36.4029 117.842 35.8589 117.538C35.3149 117.218 34.7309 117.058 34.1069 117.058C33.4829 117.058 32.9069 117.21 32.3789 117.514C31.8509 117.818 31.4189 118.266 31.0829 118.858C30.7629 119.434 30.6029 120.122 30.6029 120.922C30.6029 121.722 30.7629 122.426 31.0829 123.034C31.4189 123.626 31.8509 124.082 32.3789 124.402C32.9229 124.722 33.4989 124.882 34.1069 124.882C34.7309 124.882 35.3149 124.73 35.8589 124.426C36.4029 124.106 36.8349 123.658 37.1549 123.082C37.4749 122.49 37.6349 121.786 37.6349 120.97ZM46.0045 112.738C45.4125 112.738 44.9165 112.554 44.5165 112.186C44.1325 111.802 43.9405 111.33 43.9405 110.77C43.9405 110.21 44.1325 109.746 44.5165 109.378C44.9165 108.994 45.4125 108.802 46.0045 108.802C46.5965 108.802 47.0845 108.994 47.4685 109.378C47.8685 109.746 48.0685 110.21 48.0685 110.77C48.0685 111.33 47.8685 111.802 47.4685 112.186C47.0845 112.554 46.5965 112.738 46.0045 112.738ZM47.6605 114.322V127.618H44.3005V114.322H47.6605ZM50.1162 120.922C50.1162 119.578 50.3802 118.386 50.9082 117.346C51.4522 116.306 52.1802 115.506 53.0922 114.946C54.0202 114.386 55.0522 114.106 56.1882 114.106C57.1802 114.106 58.0442 114.306 58.7802 114.706C59.5322 115.106 60.1322 115.61 60.5802 116.218V114.322H63.9642V127.618H60.5802V125.674C60.1482 126.298 59.5482 126.818 58.7802 127.234C58.0282 127.634 57.1562 127.834 56.1642 127.834C55.0442 127.834 54.0202 127.546 53.0922 126.97C52.1802 126.394 51.4522 125.586 50.9082 124.546C50.3802 123.49 50.1162 122.282 50.1162 120.922ZM60.5802 120.97C60.5802 120.154 60.4202 119.458 60.1002 118.882C59.7802 118.29 59.3482 117.842 58.8042 117.538C58.2602 117.218 57.6762 117.058 57.0522 117.058C56.4282 117.058 55.8522 117.21 55.3242 117.514C54.7962 117.818 54.3642 118.266 54.0282 118.858C53.7082 119.434 53.5482 120.122 53.5482 120.922C53.5482 121.722 53.7082 122.426 54.0282 123.034C54.3642 123.626 54.7962 124.082 55.3242 124.402C55.8682 124.722 56.4442 124.882 57.0522 124.882C57.6762 124.882 58.2602 124.73 58.8042 124.426C59.3482 124.106 59.7802 123.658 60.1002 123.082C60.4202 122.49 60.5802 121.786 60.5802 120.97Z" fill="#47585B"/>
<g clip-path="url(#clip0)">
<path d="M75.7033 70.9527H30.6049C33.0502 63.3064 34.4216 53.4149 34.4216 43.0732C34.4216 20.1373 20.2201 1.85884 19.6156 1.09212C19.0718 0.402391 18.2422 0 17.3641 0C16.4861 0 15.6564 0.402391 15.1126 1.09212C14.5082 1.85884 0.306599 20.1376 0.306599 43.0732C0.306599 53.4149 1.67776 63.3064 4.1233 70.9527H-3.13318C-4.71641 70.9527 -6 72.2363 -6 73.8195C-6 75.4027 -4.71641 76.6863 -3.13318 76.6863H75.7033C77.2865 76.6863 78.5701 75.4027 78.5701 73.8195C78.5701 72.2363 77.2863 70.9527 75.7033 70.9527ZM24.5499 70.9527H20.2309V12.7383C24.0786 19.8087 28.688 30.8324 28.688 43.0732C28.688 53.6925 27.1909 63.7108 24.5499 70.9527ZM6.04052 43.0732C6.04052 30.8318 10.6503 19.8082 14.4976 12.7383V70.9527H10.1786C7.53761 63.7108 6.04052 53.6925 6.04052 43.0732Z" fill="#FFBA08"/>
<path d="M76.2585 23.0058C76.2585 15.654 70.2776 9.67311 62.9258 9.67311C55.574 9.67311 49.5931 15.654 49.5931 23.0058C49.5931 30.3576 55.574 36.3385 62.9258 36.3385C70.2776 36.3385 76.2585 30.3576 76.2585 23.0058ZM62.9258 30.6052C58.7356 30.6052 55.3265 27.196 55.3265 23.0058C55.3265 18.8156 58.7356 15.4065 62.9258 15.4065C67.116 15.4065 70.5251 18.8156 70.5251 23.0058C70.5251 27.196 67.116 30.6052 62.9258 30.6052Z" fill="#FFBA08"/>
<path d="M62.9257 9.04315C64.509 9.04315 65.7925 7.75957 65.7925 6.17633V3.79776C65.7925 2.21453 64.509 0.930946 62.9257 0.930946C61.3425 0.930946 60.0589 2.21453 60.0589 3.79776V6.17633C60.0589 7.75957 61.3425 9.04315 62.9257 9.04315Z" fill="#FFBA08"/>
<path d="M54.0589 32.4525V34.8311C54.0589 36.4143 55.3425 37.6979 56.9257 37.6979C58.509 37.6979 59.7925 36.4143 59.7925 34.8311V32.4525C59.7925 30.8693 58.509 29.5857 56.9257 29.5857C55.3425 29.586 54.0589 30.8696 54.0589 32.4525Z" fill="#FFBA08"/>
<path d="M76.8878 23.0058C76.8878 24.589 78.1714 25.8726 79.7546 25.8726H82.1332C83.7164 25.8726 85 24.589 85 23.0058C85 21.4226 83.7164 20.139 82.1332 20.139H79.7546C78.1716 20.139 76.8878 21.4229 76.8878 23.0058Z" fill="#FFBA08"/>
<path d="M43.7183 25.8726H46.0969C47.6801 25.8726 48.9637 24.589 48.9637 23.0058C48.9637 21.4226 47.6801 20.139 46.0969 20.139H43.7183C42.1351 20.139 40.8515 21.4226 40.8515 23.0058C40.8515 24.589 42.1351 25.8726 43.7183 25.8726Z" fill="#FFBA08"/>
<path d="M74.8255 13.9729C75.5593 13.9729 76.2928 13.693 76.8526 13.1332L78.5345 11.4512C79.6541 10.3316 79.6541 8.51631 78.5345 7.397C77.4147 6.27769 75.5999 6.27769 74.4803 7.397L72.7983 9.07897C71.6787 10.1986 71.6787 12.0139 72.7983 13.1332C73.3581 13.693 74.0917 13.9729 74.8255 13.9729Z" fill="#FFBA08"/>
<path d="M48.9989 32.8784L47.317 34.5604C46.1974 35.68 46.1974 37.4953 47.317 38.6146C47.8768 39.1741 48.6103 39.4543 49.3441 39.4543C50.0779 39.4543 50.8114 39.1744 51.3712 38.6146L53.0532 36.9326C54.1728 35.813 54.1728 33.9977 53.0532 32.8784C51.9336 31.7591 50.1188 31.7591 48.9989 32.8784Z" fill="#FFBA08"/>
<path d="M74.4803 38.6146C75.0401 39.1741 75.7736 39.4543 76.5074 39.4543C77.2412 39.4543 77.9747 39.1744 78.5345 38.6146C79.6541 37.495 79.6541 35.6797 78.5345 34.5604L76.8526 32.8784C75.7327 31.7591 73.9179 31.7591 72.7983 32.8784C71.6787 33.998 71.6787 35.8133 72.7983 36.9326L74.4803 38.6146Z" fill="#FFBA08"/>
<path d="M48.9989 13.1335C49.5587 13.693 50.2923 13.9732 51.0261 13.9732C51.7599 13.9732 52.4934 13.6933 53.0532 13.1335C54.1728 12.0139 54.1728 10.1986 53.0532 9.07926L51.3712 7.39729C50.2513 6.27798 48.4366 6.27798 47.317 7.39729C46.1974 8.51688 46.1974 10.3322 47.317 11.4515L48.9989 13.1335Z" fill="#FFBA08"/>
</g>
<defs>
<clipPath id="clip0">
<rect width="85" height="85" fill="white"/>
</clipPath>
</defs>
</svg>
